<svg xmlns="http://www.w3.org/2000/svg" width="200" height="200" fill="none" viewBox="0 0 200 200">
  <path fill="#FF9D9D" d="M0 0h200v200H0z"/>
  <g filter="url(#a)">
    <circle cx="100" cy="100" r="25" fill="#D9D9D9"/>
  </g>
  <g filter="url(#b)">
    <circle cx="50" cy="150" r="25" fill="#D9D9D9"/>
  </g>
  <g filter="url(#c)">
    <circle cx="150" cy="50" r="25" fill="#D9D9D9"/>
  </g>
  <path fill="#D9D9D9" d="M0 0h200v10H0zm0 190h200v10H0z"/>
  <path fill="#D9D9D9" d="M0 0h200v10H0z"/>
  <path fill="#D9D9D9" d="M0 200V0h10v200zm190 0V0h10v200z"/>
  <path fill="#848484" d="M0 0h200v2H0zm0 198h200v2H0z"/>
  <path fill="#848484" d="M0 200V0h2v200zm198 0V0h2v200z"/>
  <defs>
    <filter id="a" width="100" height="100" x="50" y="50" color-interpolation-filters="sRGB" filterUnits="userSpaceOnUse">
      <feFlood flood-opacity="0" result="BackgroundImageFix"/>
      <feColorMatrix in="SourceAlpha" result="hardAlpha" values="0 0 0 0 0 0 0 0 0 0 0 0 0 0 0 0 0 0 127 0"/>
      <feOffset/>
      <feGaussianBlur stdDeviation="12.5"/>
      <feComposite in2="hardAlpha" operator="out"/>
      <feColorMatrix values="0 0 0 0 0 0 0 0 0 0 0 0 0 0 0 0 0 0 0.25 0"/>
      <feBlend in2="BackgroundImageFix" result="effect1_dropShadow_1_27"/>
      <feBlend in="SourceGraphic" in2="effect1_dropShadow_1_27" result="shape"/>
    </filter>
    <filter id="b" width="100" height="100" x="0" y="100" color-interpolation-filters="sRGB" filterUnits="userSpaceOnUse">
      <feFlood flood-opacity="0" result="BackgroundImageFix"/>
      <feColorMatrix in="SourceAlpha" result="hardAlpha" values="0 0 0 0 0 0 0 0 0 0 0 0 0 0 0 0 0 0 127 0"/>
      <feOffset/>
      <feGaussianBlur stdDeviation="12.5"/>
      <feComposite in2="hardAlpha" operator="out"/>
      <feColorMatrix values="0 0 0 0 0 0 0 0 0 0 0 0 0 0 0 0 0 0 0.25 0"/>
      <feBlend in2="BackgroundImageFix" result="effect1_dropShadow_1_27"/>
      <feBlend in="SourceGraphic" in2="effect1_dropShadow_1_27" result="shape"/>
    </filter>
    <filter id="c" width="100" height="100" x="100" y="0" color-interpolation-filters="sRGB" filterUnits="userSpaceOnUse">
      <feFlood flood-opacity="0" result="BackgroundImageFix"/>
      <feColorMatrix in="SourceAlpha" result="hardAlpha" values="0 0 0 0 0 0 0 0 0 0 0 0 0 0 0 0 0 0 127 0"/>
      <feOffset/>
      <feGaussianBlur stdDeviation="12.5"/>
      <feComposite in2="hardAlpha" operator="out"/>
      <feColorMatrix values="0 0 0 0 0 0 0 0 0 0 0 0 0 0 0 0 0 0 0.25 0"/>
      <feBlend in2="BackgroundImageFix" result="effect1_dropShadow_1_27"/>
      <feBlend in="SourceGraphic" in2="effect1_dropShadow_1_27" result="shape"/>
    </filter>
  </defs>
</svg>
